<svg xmlns="http://www.w3.org/2000/svg" xmlns:xlink="http://www.w3.org/1999/xlink" width="500" zoomAndPan="magnify" viewBox="0 0 375 374.999991" height="500" preserveAspectRatio="xMidYMid meet" version="1.0"><path fill="#5382a1" d="M 138.574219 284.457031 C 138.574219 284.457031 124.539062 292.628906 148.5625 295.394531 C 177.664062 298.71875 192.539062 298.242188 224.609375 292.164062 C 224.609375 292.164062 233.042969 297.460938 244.820312 302.046875 C 172.921875 332.90625 82.105469 300.257812 138.574219 284.457031 M 129.789062 244.183594 C 129.789062 244.183594 114.046875 255.855469 138.089844 258.34375 C 169.175781 261.558594 193.726562 261.820312 236.210938 253.625 C 236.210938 253.625 242.089844 259.59375 251.328125 262.855469 C 164.402344 288.3125 67.582031 264.863281 129.789062 244.183594 " fill-opacity="1" fill-rule="nonzero"/><path fill="#e76f00" d="M 203.851562 175.871094 C 221.566406 196.300781 199.199219 214.683594 199.199219 214.683594 C 199.199219 214.683594 244.179688 191.425781 223.519531 162.304688 C 204.226562 135.144531 189.429688 121.652344 269.53125 75.125 C 269.53125 75.125 143.800781 106.574219 203.851562 175.871094 " fill-opacity="1" fill-rule="nonzero"/><path fill="#5382a1" d="M 298.941406 314.242188 C 298.941406 314.242188 309.324219 322.8125 287.5 329.441406 C 246.003906 342.035156 114.777344 345.835938 78.324219 329.945312 C 65.21875 324.234375 89.792969 316.3125 97.523438 314.648438 C 105.585938 312.898438 110.191406 313.222656 110.191406 313.222656 C 95.617188 302.941406 15.996094 333.414062 69.75 342.140625 C 216.335938 365.949219 336.964844 331.417969 298.941406 314.242188 M 145.324219 202.460938 C 145.324219 202.460938 78.574219 218.339844 121.6875 224.105469 C 139.890625 226.546875 176.175781 225.992188 209.976562 223.15625 C 237.601562 220.824219 265.339844 215.863281 265.339844 215.863281 C 265.339844 215.863281 255.597656 220.039062 248.550781 224.859375 C 180.769531 242.710938 49.824219 234.40625 87.523438 216.144531 C 119.402344 200.710938 145.324219 202.460938 145.324219 202.460938 M 265.0625 269.492188 C 333.96875 233.632812 302.109375 199.171875 279.871094 203.8125 C 274.421875 204.949219 271.992188 205.933594 271.992188 205.933594 C 271.992188 205.933594 274.015625 202.761719 277.878906 201.386719 C 321.871094 185.898438 355.703125 247.070312 263.679688 271.300781 C 263.679688 271.300781 264.746094 270.347656 265.0625 269.492188 " fill-opacity="1" fill-rule="nonzero"/><path fill="#e76f00" d="M 223.519531 0 C 223.519531 0 261.679688 38.230469 187.328125 97.019531 C 127.703125 144.175781 173.730469 171.066406 187.304688 201.789062 C 152.5 170.339844 126.957031 142.65625 144.09375 116.886719 C 169.242188 79.066406 238.917969 60.726562 223.519531 0 " fill-opacity="1" fill-rule="nonzero"/><path fill="#5382a1" d="M 152.09375 366.664062 C 218.234375 370.902344 319.800781 364.3125 322.203125 332.96875 C 322.203125 332.96875 317.582031 344.851562 267.542969 354.285156 C 211.09375 364.925781 141.464844 363.683594 100.171875 356.867188 C 100.171875 356.863281 108.625 363.871094 152.09375 366.664062 " fill-opacity="1" fill-rule="nonzero"/></svg>