<?xml version="1.0" encoding="UTF-8"?>
<svg id="Camada_1" xmlns="http://www.w3.org/2000/svg" version="1.1" viewBox="0 0 155 40.9">
  <!-- Generator: Adobe Illustrator 29.0.1, SVG Export Plug-In . SVG Version: 2.1.0 Build 192)  -->
  <defs>
    <style>
      .st0 {
        fill: #fff;
      }
    </style>
  </defs>
  <path class="st0" d="M6,6.5v6.5h10.2v5.7H6v12H0V.5h19.7v6H6Z"/>
  <path class="st0" d="M31.1,26c2.2,0,4-.6,5.3-1.6.9,1.5,1.9,2.7,2.8,3.7-2.4,2-5.2,2.9-8.6,2.9-6.6,0-10.8-4.4-10.8-10.6s4.3-10.5,10.4-10.5,10,4.2,10,10.2,0,1.5-.3,2.2h-14.4c.4,2.5,2.8,3.6,5.6,3.6,0,0,0,.1,0,.1ZM30.1,15.1c-3.3,0-4.7,2.1-4.7,3.3h9.3c0-1.5-1.6-3.3-4.6-3.3Z"/>
  <path class="st0" d="M49.5.3v23.8c0,1,.3,1.4.9,1.4s.5,0,.6-.1c.4,1.6.8,3.1,1.2,4.7-1.2.6-2.4,1-3.8,1-3.1,0-4.7-2.2-4.7-6.6V.8c1.9,0,3.8-.3,5.8-.5Z"/>
  <path class="st0" d="M61.5,4.7c0,2-1.6,3.6-3.6,3.6s-3.6-1.5-3.6-3.6,1.6-3.6,3.6-3.6,3.6,1.6,3.6,3.6ZM60.8,30.8h-5.8V10.2h5.8v20.6Z"/>
  <path class="st0" d="M70.9,9.8v2.3c1.3-1.4,3.4-2.2,6.3-2.2,6.3,0,10,4.2,10,10.6s-4.2,10.5-10.1,10.5-4.8-.8-6.2-2.6v12.5h-5.6V10.4c2-.1,3.7-.3,5.6-.6ZM81.4,20.6c0-3.6-2.3-5.4-5.3-5.4s-2.9.5-3.8,1.6c-.8.9-1.2,2.2-1.2,3.9s.4,2.5,1,3.4c.9,1.2,2.4,1.8,4,1.8,3.1,0,5.3-1.6,5.3-5.2h0Z"/>
  <path class="st0" d="M101.6,26c2.2,0,4-.6,5.3-1.6.9,1.5,1.9,2.7,2.8,3.7-2.4,2-5.2,2.9-8.6,2.9-6.6,0-10.8-4.4-10.8-10.6s4.3-10.5,10.4-10.5,10,4.2,10,10.2,0,1.5-.3,2.2h-14.4c.4,2.5,2.8,3.6,5.6,3.6h0ZM100.6,15.1c-3.3,0-4.7,2.1-4.7,3.3h9.3c0-1.5-1.6-3.3-4.6-3.3Z"/>
  <path class="st0" d="M131.9,25.5c3.5,0,6.2-.7,6.2-3s-2.4-2.8-7.5-4.1c-4.1-1-10.4-3-10.4-8.9s4.4-9.5,11.8-9.5,9.5,1.4,11.5,3.2l-2.3,5.4c-3.5-2.2-7-2.8-9.1-2.8-3.1,0-5.6.6-5.6,2.9s2,2.7,7.7,4.2c6,1.5,10.3,3.4,10.3,9.2s-4.4,9.2-11.9,9.2-10-1.3-13.2-3.4l2.4-5.2c2.1,1.4,6.9,2.9,10.1,2.9h0Z"/>
  <path class="st0" d="M155,27c0,2.2-1.9,4.1-4.1,4.1s-4.1-1.9-4.1-4.1,1.9-4.1,4.1-4.1,4.1,1.8,4.1,4.1Z"/>
</svg>