<?xml version="1.0" encoding="utf-8"?>
<!-- Generator: Adobe Illustrator 26.0.1, SVG Export Plug-In . SVG Version: 6.00 Build 0)  -->
<svg version="1.1" id="Layer_1" xmlns="http://www.w3.org/2000/svg" xmlns:xlink="http://www.w3.org/1999/xlink" x="0px" y="0px"
	 viewBox="0 0 1500 1500" style="enable-background:new 0 0 1500 1500;" xml:space="preserve">
<style type="text/css">
	.st0{fill:#252F3E;}
	.st1{fill-rule:evenodd;clip-rule:evenodd;fill:#FF9900;}
</style>
<g>
	<path class="st0" d="M477.3,764.7c0,15.4,1.7,27.9,4.6,37c3.3,9.1,7.5,19.1,13.3,29.9c2.1,3.3,2.9,6.7,2.9,9.6
		c0,4.2-2.5,8.3-7.9,12.5L464,871.2c-3.7,2.5-7.5,3.7-10.8,3.7c-4.2,0-8.3-2.1-12.5-5.8c-5.8-6.2-10.8-12.9-15-19.5
		c-4.2-7.1-8.3-15-12.9-24.5c-32.4,38.2-73.2,57.4-122.2,57.4c-34.9,0-62.8-10-83.1-29.9c-20.4-20-30.8-46.6-30.8-79.8
		c0-35.3,12.5-64,37.8-85.6c25.4-21.6,59-32.4,101.9-32.4c14.1,0,28.7,1.2,44.1,3.3c15.4,2.1,31.2,5.4,47.8,9.1v-30.3
		c0-31.6-6.7-53.6-19.5-66.5C375.4,557.3,353,551,320.9,551c-14.6,0-29.5,1.7-44.9,5.4s-30.3,8.3-44.9,14.1
		c-6.7,2.9-11.6,4.6-14.6,5.4s-5,1.2-6.7,1.2c-5.8,0-8.7-4.2-8.7-12.9V544c0-6.7,0.8-11.6,2.9-14.6c2.1-2.9,5.8-5.8,11.6-8.7
		c14.6-7.5,32-13.7,52.4-18.7c20.4-5.4,42-7.9,64.9-7.9c49.5,0,85.6,11.2,108.9,33.7c22.9,22.4,34.5,56.5,34.5,102.3v134.7H477.3z
		 M308.5,827.9c13.7,0,27.9-2.5,42.8-7.5s28.3-14.1,39.5-26.6c6.7-7.9,11.6-16.6,14.1-26.6c2.5-10,4.2-22,4.2-36.2v-17.5
		c-12.1-2.9-24.9-5.4-38.2-7.1c-13.3-1.7-26.2-2.5-39.1-2.5c-27.9,0-48.2,5.4-61.9,16.6c-13.7,11.2-20.4,27-20.4,47.8
		c0,19.5,5,34.1,15.4,44.1C274.8,822.9,289.3,827.9,308.5,827.9z M642.3,872.8c-7.5,0-12.5-1.2-15.8-4.2c-3.3-2.5-6.2-8.3-8.7-16.2
		l-97.7-321.4c-2.5-8.3-3.7-13.7-3.7-16.6c0-6.7,3.3-10.4,10-10.4h40.7c7.9,0,13.3,1.2,16.2,4.2c3.3,2.5,5.8,8.3,8.3,16.2
		l69.8,275.2l64.9-275.2c2.1-8.3,4.6-13.7,7.9-16.2c3.3-2.5,9.1-4.2,16.6-4.2h33.3c7.9,0,13.3,1.2,16.6,4.2
		c3.3,2.5,6.2,8.3,7.9,16.2L874.3,803l71.9-278.5c2.5-8.3,5.4-13.7,8.3-16.2c3.3-2.5,8.7-4.2,16.2-4.2h38.7
		c6.7,0,10.4,3.3,10.4,10.4c0,2.1-0.4,4.2-0.8,6.7c-0.4,2.5-1.2,5.8-2.9,10.4L915.9,852.9c-2.5,8.3-5.4,13.7-8.7,16.2
		c-3.3,2.5-8.7,4.2-15.8,4.2h-35.8c-7.9,0-13.3-1.2-16.6-4.2c-3.3-2.9-6.2-8.3-7.9-16.6l-64.4-268.2l-64,267.7
		c-2.1,8.3-4.6,13.7-7.9,16.6c-3.3,2.9-9.1,4.2-16.6,4.2H642.3z M1176.5,884c-21.6,0-43.2-2.5-64-7.5c-20.8-5-37-10.4-47.8-16.6
		c-6.7-3.7-11.2-7.9-12.9-11.6s-2.5-7.9-2.5-11.6v-21.2c0-8.7,3.3-12.9,9.6-12.9c2.5,0,5,0.4,7.5,1.2c2.5,0.8,6.2,2.5,10.4,4.2
		c14.1,6.2,29.5,11.2,45.7,14.6c16.6,3.3,32.8,5,49.5,5c26.2,0,46.6-4.6,60.7-13.7c14.1-9.1,21.6-22.4,21.6-39.5
		c0-11.6-3.7-21.2-11.2-29.1c-7.5-7.9-21.6-15-42-21.6l-60.3-18.7c-30.3-9.6-52.8-23.7-66.5-42.4c-13.7-18.3-20.8-38.7-20.8-60.3
		c0-17.5,3.7-32.8,11.2-46.1s17.5-24.9,29.9-34.1c12.5-9.6,26.6-16.6,43.2-21.6c16.6-5,34.1-7.1,52.4-7.1c9.1,0,18.7,0.4,27.9,1.7
		c9.6,1.2,18.3,2.9,27,4.6c8.3,2.1,16.2,4.2,23.7,6.7s13.3,5,17.5,7.5c5.8,3.3,10,6.7,12.5,10.4c2.5,3.3,3.7,7.9,3.7,13.7v19.5
		c0,8.7-3.3,13.3-9.6,13.3c-3.3,0-8.7-1.7-15.8-5c-23.7-10.8-50.3-16.2-79.8-16.2c-23.7,0-42.4,3.7-55.3,11.6
		c-12.9,7.9-19.5,20-19.5,37c0,11.6,4.2,21.6,12.5,29.5c8.3,7.9,23.7,15.8,45.7,22.9l59,18.7c29.9,9.6,51.6,22.9,64.4,39.9
		c12.9,17,19.1,36.6,19.1,58.2c0,17.9-3.7,34.1-10.8,48.2c-7.5,14.1-17.5,26.6-30.3,36.6c-12.9,10.4-28.3,17.9-46.1,23.3
		C1217.3,881.1,1197.7,884,1176.5,884z"/>
	<g>
		<path class="st1" d="M1255.1,1086.1c-136.8,101-335.5,154.7-506.4,154.7c-239.5,0-455.2-88.6-618.2-235.7
			c-12.9-11.6-1.2-27.4,14.1-18.3c176.3,102.3,393.7,164.2,618.6,164.2c151.7,0,318.5-31.6,471.9-96.5
			C1258,1044.1,1277.6,1069.5,1255.1,1086.1z"/>
		<path class="st1" d="M1312.1,1021.2c-17.5-22.4-115.6-10.8-160.1-5.4c-13.3,1.7-15.4-10-3.3-18.7c78.2-54.9,206.6-39.1,221.6-20.8
			c15,18.7-4.2,147.2-77.3,208.7c-11.2,9.6-22,4.6-17-7.9C1292.5,1136,1329.5,1043.3,1312.1,1021.2z"/>
	</g>
</g>
</svg>
