<?xml version="1.0" encoding="utf-8"?>
<!-- Generator: Adobe Illustrator 26.0.1, SVG Export Plug-In . SVG Version: 6.00 Build 0)  -->
<svg version="1.1" id="Camada_1" xmlns="http://www.w3.org/2000/svg" xmlns:xlink="http://www.w3.org/1999/xlink" x="0px" y="0px"
	 viewBox="0 0 90 94" style="enable-background:new 0 0 90 94;" xml:space="preserve">
<style type="text/css">
	.st0{fill:#240A49;stroke:#FFFFFF;stroke-width:0.25;stroke-miterlimit:10;}
</style>
<path class="st0" d="M37.8,10.1c-0.6-0.6-1.3-0.9-2.2-0.9c-0.8,0-1.6,0.3-2.2,0.9h0c-0.6,0.6-0.9,1.4-0.9,2.3c0,0.8,0.3,1.7,0.9,2.3
	l0,0c0.6,0.6,1.4,0.9,2.2,0.9c0.9,0,1.7-0.4,2.2-0.9l0,0c0.6-0.6,0.9-1.4,0.9-2.3C38.7,11.5,38.4,10.7,37.8,10.1L37.8,10.1
	L37.8,10.1z M35.6,53.7c0.9,0,1.7-0.4,2.2-0.9l0,0c0.6-0.6,0.9-1.4,0.9-2.2c0-0.9-0.3-1.7-0.9-2.3h0c-0.6-0.6-1.3-0.9-2.2-0.9
	c-0.8,0-1.6,0.3-2.2,0.9h0c-0.6,0.6-0.9,1.4-0.9,2.3c0,0.8,0.3,1.6,0.9,2.2l0,0C33.9,53.4,34.7,53.7,35.6,53.7L35.6,53.7z
	 M52.6,44.1c0.8-0.2,1.5-0.7,1.9-1.5l0.1-0.1c0.4-0.7,0.5-1.5,0.2-2.3c-0.2-0.8-0.7-1.5-1.5-1.9l0,0c-0.7-0.4-1.5-0.5-2.3-0.3
	c-0.8,0.2-1.5,0.7-1.9,1.5c-0.4,0.7-0.5,1.6-0.3,2.4c0.2,0.8,0.7,1.5,1.5,1.9h0C51,44.2,51.9,44.3,52.6,44.1L52.6,44.1z M38.8,28.2
	c-0.8-0.8-2-1.4-3.2-1.4c-1.2,0-2.4,0.5-3.2,1.4c-0.8,0.8-1.3,2-1.3,3.3c0,1.2,0.5,2.4,1.3,3.3c0.8,0.8,2,1.3,3.2,1.3
	s2.4-0.5,3.2-1.3c0.9-0.9,1.3-2.1,1.3-3.3C40.1,30.2,39.6,29,38.8,28.2L38.8,28.2z M37,22.7c1.8,0.3,3.4,1.2,4.7,2.5h0
	c0.2,0.2,0.4,0.4,0.6,0.6l3.1-1.9c-0.4-1.3-0.4-2.6-0.1-3.9c0.4-1.7,1.5-3.2,3.2-4.2l0.1,0c1.5-0.9,3.4-1.1,5.1-0.7
	c1.7,0.5,3.2,1.6,4.1,3.2v0c0.9,1.6,1.1,3.5,0.7,5.2c-0.4,1.7-1.5,3.2-3.2,4.2l-0.4,0.3h0c-1.5,0.7-3.2,0.8-4.7,0.4
	c-1.3-0.3-2.4-1.1-3.3-2l-3.1,1.8c0.4,1,0.6,2,0.6,3.1c0,1.1-0.2,2.2-0.6,3.1l3.1,1.8c0.9-1,2-1.7,3.3-2c1.7-0.5,3.5-0.3,5.1,0.7
	l0.1,0v0c1.5,0.9,2.6,2.4,3,4.1c0.5,1.8,0.2,3.6-0.7,5.2l-0.1,0.1l0,0c-0.9,1.5-2.3,2.6-4,3.1c-1.7,0.4-3.5,0.3-5.1-0.7v0
	c-1.6-0.9-2.7-2.4-3.2-4.2c-0.3-1.3-0.3-2.6,0.1-3.9L42.3,37c-0.2,0.2-0.4,0.4-0.6,0.6l0,0c-1.3,1.3-2.9,2.2-4.7,2.5v3.7
	c1.3,0.3,2.5,0.9,3.4,1.9l0,0c1.2,1.2,2,3,2,4.9c0,1.8-0.7,3.6-2,4.8l0,0c-1.2,1.2-2.9,2-4.8,2c-1.9,0-3.5-0.8-4.8-2h0v0
	c-1.3-1.3-2-3-2-4.9c0-1.9,0.8-3.6,2-4.9v0h0c0.9-0.9,2.1-1.6,3.4-1.9v-3.7c-1.8-0.3-3.5-1.2-4.7-2.5l0,0c-1.6-1.7-2.5-3.9-2.5-6.2
	c0-2.4,1-4.6,2.5-6.2h0c1.3-1.3,2.9-2.2,4.7-2.5V19c-1.3-0.3-2.5-0.9-3.4-1.9h0v0c-1.3-1.3-2-3-2-4.9c0-1.8,0.7-3.6,2-4.9l0,0
	c1.2-1.2,2.9-2,4.8-2c1.9,0,3.6,0.8,4.8,2v0h0c1.2,1.2,2,3,2,4.9c0,1.8-0.7,3.6-2,4.9l0,0c-0.9,0.9-2.1,1.6-3.4,1.9L37,22.7L37,22.7
	z M54.6,20.3L54.6,20.3c-0.4-0.7-1.1-1.3-1.9-1.5c-0.8-0.2-1.7-0.1-2.4,0.3h0c-0.8,0.4-1.3,1.1-1.5,1.9c-0.2,0.8-0.1,1.7,0.3,2.4
	l0,0c0.4,0.8,1.1,1.3,1.9,1.5c0.8,0.2,1.6,0.1,2.4-0.3l0,0c0.7-0.4,1.2-1.1,1.4-1.9C55.1,21.9,55,21.1,54.6,20.3 M7.2,63.7H11v11.7
	l5.4-6.1h4.5l-6.6,7.1l6.6,9h-4.3l-5.7-8v8H7.2V63.7 M25.3,77.4c0,2,1.4,4.9,4.8,4.9c2.1,0,3.5-1.1,4.2-2.6c0.4-0.7,0.5-1.5,0.6-2.3
	c0-0.8-0.1-1.6-0.4-2.3c-0.7-1.5-2.1-2.8-4.4-2.8C27,72.3,25.3,74.8,25.3,77.4L25.3,77.4L25.3,77.4z M38.7,85.4h-3.8V83
	c-1,1.9-3.1,2.8-5.3,2.8c-5.1,0-8-4-8-8.6c0-5.1,3.6-8.5,8-8.5c2.9,0,4.6,1.6,5.3,2.8v-2.3h3.8V85.4 M43,72.2h-2v-3h2v-0.9
	c0-4.8,3.6-5.1,6.3-5.1v3c-1,0-2.5,0-2.5,2.3v0.8h2.5v3h-2.5v13.1H43L43,72.2 M51.8,63.6h3.8v11.7l5.4-6.1h4.5L59,76.3l6.6,9h-4.3
	l-5.7-8v8h-3.8L51.8,63.6 M70,77.4c0,2,1.4,4.9,4.8,4.9c2.1,0,3.5-1.1,4.2-2.6c0.4-0.7,0.6-1.5,0.6-2.3c0-0.8-0.1-1.6-0.4-2.3
	c-0.7-1.5-2.1-2.8-4.4-2.8C71.7,72.3,70,74.8,70,77.4C70,77.3,70,77.4,70,77.4z M83.3,85.4h-3.8V83c-1,1.9-3.1,2.8-5.3,2.8
	c-5.1,0-8-4-8-8.6c0-5.1,3.6-8.5,8-8.5c2.9,0,4.6,1.6,5.3,2.8v-2.3h3.8V85.4"/>
</svg>
