<?xml version="1.0" encoding="utf-8"?>
<!-- Generator: Adobe Illustrator 26.0.1, SVG Export Plug-In . SVG Version: 6.00 Build 0)  -->
<svg version="1.1" id="Layer_1" xmlns="http://www.w3.org/2000/svg" xmlns:xlink="http://www.w3.org/1999/xlink" x="0px" y="0px"
	 viewBox="0 0 2618.8 2571.7" style="enable-background:new 0 0 2618.8 2571.7;" xml:space="preserve">
<style type="text/css">
	.st0{fill:#FF6600;}
	.st1{fill:#A9B5AF;}
</style>
<path class="st0" d="M1979.7,791.2h-479c-32.9,0.2-59.8-30.3-60-68.3c0-0.3,0-0.6,0-0.9V169.9c0-38-26.7-68.7-59.6-68.7
	c-0.1,0-0.3,0-0.4,0h-179.3c-32.9-0.2-59.8,30.3-60,68.3c0,0.1,0,0.3,0,0.4v552.1c0.2,38-26.3,68.9-59.3,69.2c-0.3,0-0.5,0-0.8,0
	H902c-32.9,0.2-59.8-30.3-60-68.3c0-0.3,0-0.6,0-0.9V169.9c0.2-38-26.3-68.9-59.3-69.2c-0.3,0-0.5,0-0.8,0H602.3
	c-32.9,0-59.6,30.8-59.6,68.7c0,0.1,0,0.3,0,0.4v1587.6c-0.2,38,26.3,68.9,59.3,69.2c0.3,0,0.5,0,0.8,0h1377.1
	c32.9,0.2,59.8-30.3,60-68.3c0-0.3,0-0.6,0-0.9V861.7c0.8-38-25.2-69.5-58.1-70.5C1981,791.2,1980.4,791.2,1979.7,791.2z
	 M1738.9,1377.5c0.2,57.1-39.8,103.5-89.3,103.8c-0.1,0-0.3,0-0.4,0h-120c-49.5,0-89.7-46.3-89.7-103.3c0-0.1,0-0.3,0-0.4v-137.9
	c-0.2-57.1,39.8-103.5,89.3-103.8c0.1,0,0.3,0,0.4,0h120c49.5,0,89.7,46.3,89.7,103.3c0,0.1,0,0.3,0,0.4V1377.5z"/>
<g>
	<path class="st1" d="M2427.7,2334.9l-18.5,63.5h-5.7l-18.6-63.5l0,0v63.5h-5v-68.9h9.1l17.6,60.4l0,0l17.6-60.4h8.8v68.9h-5v-63.5
		l0,0H2427.7z"/>
	<polygon class="st1" points="2373.9,2329.4 2348,2329.4 2343.1,2329.4 2317.3,2329.4 2317.3,2334.9 2343.1,2334.9 2343.1,2398.4 
		2348,2398.4 2348,2334.9 2373.9,2334.9 	"/>
	<path class="st1" d="M1776.7,2397.4h-36.8l-121-407.6v407.6h-32.2v-443h57.9l112.7,387.8h1.2l113.1-387.8h56.6v443h-31.9v-407.6
		L1776.7,2397.4z"/>
	<path class="st0" d="M289.7,1954.2v443.1h35V2197h48.4c12.8-0.3,25.6,2,37.6,6.7c35.7,14.9,39.8,60.3,46.2,89.4l20.3,104.8h35.2
		l-22.9-119.6c-6.7-36-11.2-51.4-20.3-67c-12.1-20.7-46.7-31.8-46.7-31.8c56.8-12.2,81.4-54,81.4-111c0-52.3-23.1-113.4-129.1-113.4
		h-85.1V1954.2z M324.7,1989.6h46.2c92.3,0,97.6,53.9,97.6,78.2c0,20.2-3.4,94-111.9,94h-31.9v-172.1l0,0L324.7,1989.6z"/>
	<path class="st0" d="M554.1,2165h35.8c3.3-17.9,10.2-49.6,57.9-49.6c62.5,0,60.4,59.4,60.4,82.5v26.8c0,0-20.3,0-33,1.3
		c-47.7,4-125.6,17.7-125.6,96.6s59.6,81.7,71.2,81.7c17.1,0.3,34.1-4.1,49.2-12.8c15-8.9,27.8-21.7,37.2-37.3h1.2v43.2h29v-208.7
		c0-31.2,2.6-103.9-87-103.9S554.1,2150.5,554.1,2165z M708.1,2255.3c0,11.8-0.7,23.6-2,35.3c-6,43.3-40,75.3-79.9,75.2
		c-20.7,2.2-39.2-14.6-41.1-37.4c-0.1-1.4-0.2-2.7-0.2-4.1c0-16.2,5.7-54.1,62.3-66C659,2255.8,708.1,2255.3,708.1,2255.3z"/>
	<path class="st0" d="M785.5,1954.2v318c0,17.2,0.5,132.2,96.9,132.2c23.2,0,107.8-8.9,107.8-156.4c0-147.5-74.2-163-96.6-163
		c-36.2-0.2-68,26.3-77.7,64.6h-1v-195.3h-29.5H785.5z M955,2247.1c0,123.7-62.9,126.3-72.6,126.3c-9.8,0-66.4,0-66.4-121.2
		c0-100.6,44-136.9,74.4-136.9c30.3,0,64.7,34.3,64.7,132V2247.1z"/>
	<path class="st0" d="M1035.6,1954.2v318c0,17.2,0.5,132.2,96.9,132.2c23.2,0,107.8-8.9,107.8-156.4c0-147.5-74.2-163-96.6-163
		c-36.2-0.2-68,26.3-77.7,64.6h-1.2v-195.3h-29.5H1035.6z M1205.1,2247.1c0,123.7-62.9,126.3-72.6,126.3s-66.4,0-66.4-121.2
		c0-100.6,44-136.9,74.4-136.9c30.3,0,64.6,34.3,64.6,132L1205.1,2247.1z"/>
	<path class="st0" d="M1319,2091.7v305.7h-29.2v-305.7H1319z"/>
	<path class="st0" d="M1325.7,1954.4v52h-43.1v-52H1325.7z"/>
	<path class="st0" d="M1522.5,2401.6c-9.8,1.5-19.8,2.4-29.7,2.8c-19.8,1.3-39.3-4.9-55.4-17.5c-12.2-11.2-18.2-30.8-18.2-57.8
		v-206.8h-44.5v-30.6h44.5v-70.6l29-21.3v91.8h74.4v30.6h-74.2v196.7c0,8.8-1.9,54.4,42.1,54.4c10.9-0.1,21.7-2,32.1-5.5v33.5l0,0
		V2401.6z"/>
	<path class="st1" d="M2196.4,2367.3c37.3-35.1,57.3-100.6,57.3-195c0-137.5-47.3-225.7-135.6-225.7c-82.8,0-140.5,73.9-140.5,225.7
		s49,225.3,138,225.3h3.8l0,0h162.7v-37.2L2196.4,2367.3z M2016,2172.5c0-126.3,32.9-187.6,101.7-187.6c68.9,0,97.2,73.3,97.2,187.6
		c0,114.3-25,187.9-99,187.9S2016,2298.7,2016,2172.5z"/>
</g>
</svg>
