<svg xmlns="http://www.w3.org/2000/svg" xmlns:xlink="http://www.w3.org/1999/xlink" width="500" zoomAndPan="magnify" viewBox="0 0 375 374.999991" height="500" preserveAspectRatio="xMidYMid meet" version="1.0"><defs><clipPath id="23d7de3558"><path d="M 27.320312 64.363281 L 347.570312 64.363281 L 347.570312 310.363281 L 27.320312 310.363281 Z M 27.320312 64.363281 " clip-rule="nonzero"/></clipPath></defs><g clip-path="url(#23d7de3558)"><path fill="#ffffff" d="M 52.050781 64.363281 C 38.589844 64.363281 27.425781 75.53125 27.425781 88.988281 L 27.425781 286.003906 C 27.425781 299.464844 38.589844 310.632812 52.050781 310.632812 L 322.949219 310.632812 C 336.40625 310.632812 347.574219 299.464844 347.574219 286.003906 L 347.574219 88.988281 C 347.574219 75.53125 336.40625 64.363281 322.949219 64.363281 Z M 85.289062 88.988281 L 289.710938 88.988281 L 187.5 164.53125 Z M 64.363281 119.460938 L 187.5 210.464844 L 310.632812 119.460938 L 310.632812 286.003906 L 64.363281 286.003906 Z M 64.363281 119.460938 " fill-opacity="1" fill-rule="nonzero"/></g></svg>