<svg xmlns="http://www.w3.org/2000/svg" xmlns:xlink="http://www.w3.org/1999/xlink" width="500" zoomAndPan="magnify" viewBox="0 0 375 374.999991" height="500" preserveAspectRatio="xMidYMid meet" version="1.0"><path fill="#ffffff" d="M 261.605469 264.390625 C 268.046875 279.289062 266.289062 294.816406 266.386719 310.15625 C 266.484375 325.449219 266.480469 340.742188 266.375 356.035156 C 266.289062 367.40625 257.132812 374.992188 246.574219 372.675781 C 239.210938 371.058594 234.035156 364.648438 234.019531 356.730469 C 233.972656 335.113281 233.894531 313.5 234.117188 291.886719 C 234.226562 281.117188 231.054688 271.773438 223.777344 263.855469 C 219.09375 258.761719 217.386719 252.949219 219.894531 246.402344 C 222.328125 240.054688 227.296875 237.109375 233.976562 235.867188 C 246.230469 233.589844 258.667969 231.625 270.484375 227.832031 C 297.78125 219.078125 313.765625 199.582031 319.601562 171.796875 C 323.175781 154.761719 324.839844 137.554688 320.472656 120.347656 C 317.65625 109.25 312.398438 99.351562 304.582031 91.003906 C 298.867188 84.898438 297.5 78.429688 300.332031 70.511719 C 304.546875 58.710938 304.976562 46.59375 301.875 33.640625 C 297.621094 35.089844 293.398438 36.007812 289.667969 37.898438 C 280.230469 42.683594 270.789062 47.542969 261.78125 53.070312 C 255.738281 56.78125 249.976562 57.886719 243.109375 56.113281 C 210.039062 47.554688 176.945312 47.570312 143.824219 56.152344 C 137.113281 57.894531 131.316406 57.039062 125.53125 53.117188 C 114.21875 45.453125 102.316406 38.828125 89.101562 34.902344 C 87.921875 34.550781 86.707031 34.320312 85.222656 33.96875 C 82.765625 43.007812 82.570312 51.871094 84.238281 60.753906 C 84.984375 64.703125 86.175781 68.585938 87.394531 72.425781 C 89.355469 78.609375 88.535156 84.277344 84.128906 89.035156 C 69.714844 104.609375 63.3125 122.992188 64.152344 144.097656 C 64.730469 158.695312 66.503906 173.050781 71.949219 186.734375 C 80.769531 208.910156 97.582031 222.367188 119.835938 229.132812 C 130.285156 232.308594 141.164062 234.234375 151.960938 236.085938 C 162.921875 237.964844 169.402344 244.703125 167.957031 254.628906 C 167.492188 257.800781 165.851562 261.238281 163.726562 263.648438 C 156.039062 272.359375 152.757812 282.277344 152.933594 293.859375 C 153.25 314.710938 153.089844 335.570312 153.011719 356.425781 C 152.972656 365.996094 146.117188 373.054688 137.070312 373.175781 C 127.96875 373.296875 120.929688 366.070312 120.835938 356.332031 C 120.75 347.25 120.820312 338.167969 120.820312 329.566406 C 112.554688 329.566406 104.617188 329.992188 96.746094 329.480469 C 77.964844 328.257812 62.324219 320.070312 49.570312 306.472656 C 43.789062 300.308594 38.605469 293.582031 33.214844 287.058594 C 28.761719 281.671875 24.136719 276.894531 17.09375 274.457031 C 9.289062 271.757812 5.71875 262.476562 8.410156 254.640625 C 11.171875 246.589844 19.53125 242.160156 27.820312 244.285156 C 38.527344 247.035156 46.882812 253.386719 53.953125 261.554688 C 59.078125 267.476562 64 273.582031 68.839844 279.738281 C 82.390625 296.976562 100.074219 300.558594 120.355469 295.703125 C 120.738281 290.308594 120.785156 284.996094 121.570312 279.792969 C 122.332031 274.710938 123.84375 269.738281 125.054688 264.597656 C 119.28125 262.839844 113.21875 261.207031 107.304688 259.148438 C 64.066406 244.101562 40.589844 212.917969 33.90625 168.371094 C 31.273438 150.816406 30.375 133.179688 34.429688 115.625 C 37.65625 101.652344 43.433594 88.859375 51.960938 77.347656 C 53.429688 75.367188 53.953125 73.613281 53.390625 71.140625 C 48.835938 51.089844 50.492188 31.503906 58.144531 12.429688 C 61.320312 4.511719 66.574219 1.328125 75.039062 0.929688 C 95.019531 -0.00390625 112.464844 7.667969 128.882812 17.507812 C 136.75 22.226562 143.707031 23.078125 152.484375 21.332031 C 182.46875 15.378906 212.53125 16.246094 242.398438 22.675781 C 245.84375 23.414062 248.492188 23.074219 251.539062 21.210938 C 266.351562 12.136719 281.785156 4.316406 299.167969 1.558594 C 304.472656 0.71875 310.035156 0.71875 315.402344 1.203125 C 321.800781 1.78125 326.226562 5.660156 328.664062 11.675781 C 336.539062 31.085938 338.3125 50.996094 333.804688 71.492188 C 333.457031 73.074219 333.847656 75.324219 334.789062 76.613281 C 350.59375 98.273438 356.753906 122.574219 355.136719 149.117188 C 354.0625 166.742188 351.34375 184.011719 344.4375 200.398438 C 331.378906 231.386719 307.695312 250.328125 276.179688 260.28125 C 271.515625 261.753906 266.757812 262.945312 261.605469 264.390625 Z M 261.605469 264.390625 " fill-opacity="1" fill-rule="nonzero"/></svg>