<svg xmlns="http://www.w3.org/2000/svg" xmlns:xlink="http://www.w3.org/1999/xlink" width="500" zoomAndPan="magnify" viewBox="0 0 375 374.999991" height="500" preserveAspectRatio="xMidYMid meet" version="1.0"><defs><clipPath id="a32f043b58"><path d="M 125 40 L 238 40 L 238 319.5 L 125 319.5 Z M 125 40 " clip-rule="nonzero"/></clipPath></defs><g clip-path="url(#a32f043b58)"><path fill="#62a2a2" d="M 221.144531 40.855469 C 209.554688 37.515625 197.398438 44.261719 194.042969 55.898438 L 126.675781 291.675781 C 123.339844 303.265625 130.082031 315.421875 141.710938 318.773438 C 143.71875 319.355469 145.746094 319.628906 147.738281 319.628906 C 157.25 319.628906 166.039062 313.351562 168.8125 303.730469 L 236.175781 67.953125 C 239.515625 56.363281 232.773438 44.207031 221.144531 40.855469 Z M 221.144531 40.855469 " fill-opacity="1" fill-rule="nonzero"/></g><path fill="#62a2a2" d="M 348.570312 164.316406 L 289.625 105.371094 C 281.101562 96.84375 267.238281 96.824219 258.691406 105.316406 C 258.683594 105.328125 258.675781 105.335938 258.664062 105.34375 C 258.65625 105.351562 258.648438 105.363281 258.640625 105.371094 C 250.148438 113.917969 250.167969 127.78125 258.691406 136.304688 L 302.121094 179.785156 L 258.636719 223.265625 C 250.09375 231.8125 250.09375 245.710938 258.636719 254.253906 C 262.773438 258.390625 268.273438 260.671875 274.128906 260.671875 C 279.984375 260.671875 285.488281 258.390625 289.621094 254.253906 L 348.570312 195.308594 C 357.113281 186.761719 357.113281 172.859375 348.570312 164.316406 Z M 348.570312 164.316406 " fill-opacity="1" fill-rule="nonzero"/><path fill="#62a2a2" d="M 110.625 120.863281 C 110.625 115.007812 108.347656 109.507812 104.210938 105.371094 C 95.671875 96.832031 81.769531 96.828125 73.222656 105.371094 L 14.277344 164.316406 C 5.734375 172.859375 5.734375 186.761719 14.277344 195.304688 L 73.222656 254.25 C 77.359375 258.386719 82.863281 260.667969 88.714844 260.667969 C 94.570312 260.667969 100.074219 258.386719 104.207031 254.25 C 108.34375 250.117188 110.625 244.613281 110.625 238.757812 C 110.625 232.90625 108.347656 227.402344 104.207031 223.265625 L 60.730469 179.835938 L 104.207031 136.355469 C 108.347656 132.222656 110.625 126.71875 110.625 120.863281 Z M 110.625 120.863281 " fill-opacity="1" fill-rule="nonzero"/></svg>